<svg id="457bf273-24a3-4fd8-a857-e9b918267d6a" data-name="Layer 1" xmlns="http://www.w3.org/2000/svg" width="698" height="698" viewBox="0 0 698 698"><defs><linearGradient id="b247946c-c62f-4d08-994a-4c3d64e1e98f" x1="349" y1="698" x2="349" gradientUnits="userSpaceOnUse"><stop offset="0" stop-color="gray" stop-opacity=".25"/><stop offset=".54" stop-color="gray" stop-opacity=".12"/><stop offset="1" stop-color="gray" stop-opacity=".1"/></linearGradient></defs><circle cx="349" cy="349" r="349" fill="url(#b247946c-c62f-4d08-994a-4c3d64e1e98f)" opacity=".5"/><circle cx="349.68" cy="346.77" r="341.64" fill="#f5f5f5"/><path d="M601 790.76a340 340 0 00187.79-56.2c-12.59-68.8-60.5-72.72-60.5-72.72h-264.2s-45.21 3.71-59.33 67A340.07 340.07 0 00601 790.76z" transform="translate(-251 -101)" fill="#fa0"/><circle cx="346.37" cy="339.57" r="164.9" fill="#333"/><path d="M293.15 476.92h105.66v84.53A52.83 52.83 0 01346 614.28a52.83 52.83 0 01-52.83-52.83v-84.53z" opacity=".1"/><path d="M296.5 473h99a3.35 3.35 0 013.35 3.35v81.18A52.83 52.83 0 01346 610.37a52.83 52.83 0 01-52.83-52.83v-81.19a3.35 3.35 0 013.33-3.35z" fill="#fdb797"/><path d="M544.34 617.82a152.07 152.07 0 00105.66.29v-13H544.34z" transform="translate(-251 -101)" opacity=".1"/><circle cx="346.37" cy="372.44" r="151.45" fill="#fdb797"/><path d="M489.49 335.68S553.32 465.24 733.37 390l-41.92-65.73-74.31-26.67z" transform="translate(-251 -101)" opacity=".1"/><path d="M489.49 333.78s63.83 129.56 243.88 54.3l-41.92-65.73-74.31-26.67z" transform="translate(-251 -101)" fill="#333"/><path d="M488.93 325a87.49 87.49 0 0121.69-35.27c29.79-29.45 78.63-35.66 103.68-69.24 6 9.32 1.36 23.65-9 27.65 24-.16 51.81-2.26 65.38-22a44.89 44.89 0 01-7.57 47.4c21.27 1 44 15.4 45.34 36.65.92 14.16-8 27.56-19.59 35.68s-25.71 11.85-39.56 14.9c-40.44 8.93-186.76 46.3-160.37-35.77z" transform="translate(-251 -101)" fill="#333"/><ellipse cx="194.86" cy="372.3" rx="14.09" ry="26.42" fill="#fdb797"/><ellipse cx="497.8" cy="372.3" rx="14.09" ry="26.42" fill="#fdb797"/></svg>